<svg xmlns="http://www.w3.org/2000/svg" width="309" height="56" viewBox="0 0 309 56" fill="none"><path d="M1.4375 55.5761H28.0504V50.2342H7.7054V41.8105H23.4265V36.4686H7.7054V29.2776H27.4339V23.9357H1.4375V55.5761ZM40.7917 33.3867C40.7917 31.3322 43.4632 29.1749 48.8064 29.1749C54.1495 29.1749 59.4926 31.5376 59.4926 31.5376L61.6504 26.2985C61.6504 26.2985 56.9238 23.5248 49.3201 23.5248C40.7917 23.5248 34.832 26.9148 34.832 33.9004C34.832 39.7559 39.2504 42.4268 47.3678 42.4268C55.4853 42.4268 57.4375 43.865 57.4375 46.4333C57.4375 49.0015 54.2522 50.2342 48.8064 50.2342C43.3605 50.2342 35.4485 46.6387 35.4485 46.6387L32.8797 51.8779C32.8797 51.8779 40.8944 55.987 49.4229 55.987C57.9513 55.987 63.3972 52.0833 63.3972 46.536C63.3972 40.9886 58.9788 36.7768 50.7586 36.7768C41.3054 36.8795 40.7917 35.3386 40.7917 33.3867ZM84.2559 29.2776H95.0449V23.9357H67.199V29.2776H77.988V55.5761H84.2559V29.2776ZM130.186 55.5761L122.788 45.2005C128.439 43.7623 130.186 38.4204 130.186 34.414C130.186 30.8185 127.926 24.0384 119.089 24.0384H100.491V55.5761H106.861V45.6114V40.2695V29.2776H119.192C123.61 29.2776 124.432 33.0785 124.432 35.1331C124.432 37.1877 123.302 40.2695 119.808 40.2695H111.999V45.6114H115.698L122.788 55.5761H130.186ZM166.355 39.7559V24.0384H159.984V39.7559C159.984 46.4333 157.929 50.4397 150.839 50.4397C143.852 50.4397 141.695 46.4333 141.695 39.7559V24.0384H135.324V39.7559C135.324 48.6933 139.742 55.987 150.737 55.987C161.937 55.987 166.355 48.796 166.355 39.7559ZM188.241 29.2776H199.03V23.9357H171.184V29.2776H181.973V55.5761H188.344V29.2776H188.241ZM235.918 39.7559V24.0384H229.548V39.7559C229.548 46.4333 227.493 50.4397 220.403 50.4397C213.416 50.4397 211.258 46.4333 211.258 39.7559V24.0384H204.887V39.7559C204.887 48.6933 209.306 55.987 220.3 55.987C231.397 55.987 235.918 48.796 235.918 39.7559ZM308.359 55.5761L296.851 24.0384H287.5L275.992 55.5761H282.157L286.781 43.2487L291.918 29.2776H292.432L297.57 43.2487L299.522 48.5906L302.091 55.5761H308.359Z" fill="white"></path><path d="M271.471 55.5764L264.073 45.2008C269.724 43.7626 271.471 38.4207 271.471 34.4143C271.471 30.8188 269.21 24.0387 260.374 24.0387H241.673V55.5764H248.043V45.6117V40.2698V29.3806H260.477C264.895 29.3806 265.717 33.1815 265.717 35.2361C265.717 37.2907 264.587 40.3725 261.093 40.3725H253.387V45.7144H257.086L264.073 55.5764H271.471Z" fill="white"></path><path d="M296.03 55.5762L292.331 45.9197H292.228L288.529 55.5762H292.228H296.03Z" fill="#BC1413"></path><path d="M85.3872 13.3547C81.3799 13.3547 79.7358 11.4029 79.7358 8.11556C79.7358 4.82825 81.3799 2.8764 85.3872 2.8764C89.3946 2.8764 91.0386 4.82825 91.0386 8.11556C91.0386 11.3001 89.3946 13.3547 85.3872 13.3547ZM85.3872 0.102729C80.0441 0.102729 76.5505 3.69823 76.5505 8.11556C76.5505 12.5329 80.0441 16.1284 85.3872 16.1284C90.7303 16.1284 94.2239 12.5329 94.2239 8.11556C94.2239 3.69823 90.7303 0.102729 85.3872 0.102729ZM68.5358 8.32102H62.1652V2.97913H68.2276C70.3854 2.97913 70.7964 4.82824 70.7964 5.85553C70.7964 6.78009 70.1799 8.32102 68.5358 8.32102ZM68.2276 0.308186H59.0826V15.7175H62.1652V10.7865H68.5358C72.5432 10.7865 73.6734 7.60192 73.6734 5.34189C73.5707 3.69823 72.5432 0.308186 68.2276 0.308186ZM51.7872 8.11556C51.7872 11.4029 50.7597 13.3547 47.3688 13.3547C43.978 13.3547 42.9505 11.4029 42.9505 8.11556V0.308186H39.8679V8.01283C39.8679 12.4302 42.0257 16.0257 47.4716 16.0257C52.8147 16.0257 55.0753 12.4302 55.0753 8.01283V0.308186H51.9927L51.7872 8.11556ZM31.134 8.32102H24.7633V2.97913H30.8257C32.9835 2.97913 33.3945 4.82824 33.3945 5.85553C33.3945 6.78009 32.8808 8.32102 31.134 8.32102ZM36.2716 5.44462C36.2716 3.69823 35.1413 0.308186 30.8257 0.308186H21.6808V15.7175H24.7633V10.7865H29.1817L32.6753 15.7175H36.2716L32.6753 10.6838C35.4496 9.96468 36.2716 7.39646 36.2716 5.44462ZM9.76148 8.32102V10.8892H13.9743C13.1523 12.4302 11.611 13.252 8.93946 13.252C4.93211 13.252 3.28808 11.3001 3.28808 8.01283C3.28808 4.72552 4.93211 2.77367 8.93946 2.77367C13.3578 2.77367 15.0018 4.52006 15.0018 4.52006L17.1596 2.77367C17.1596 2.77367 14.6936 0 8.93946 0C3.49358 0.102729 0 3.69823 0 8.11556C0 12.5329 3.49358 16.1284 8.8367 16.1284C11.2 16.1284 13.1523 15.512 14.5908 14.382V15.9229H17.6734V8.32102H9.76148Z" fill="#BC1413"></path></svg>